# xmcd
#
# Track frame offsets: 
#        150
#        19779
#        39388
#        59325
#        90769
#        106650
#        133893
#        154520
#        175238
#        188606
#        205036
#        224381
#        241107
#        258062
#
# Disc length: 3673 seconds
#
# Revision: 0
# Processed by: cddbd v1.5.2PL0 Copyright (c) Steve Scherf et al.
# Submitted via: ExactAudioCopy v1.0b1
#
DISCID=a70e570e
DTITLE=Phil Wiggins and Dom Turner - Owing The Devil A Day's Work
DYEAR=2014
DGENRE=Blues
TTITLE0=Roberta
TTITLE1=Jimmy Bell
TTITLE2=Going Down South
TTITLE3=No Ice In My Bourbon
TTITLE4=Louis Collins
TTITLE5=Special Rider Blues
TTITLE6=Stop and Listen
TTITLE7=Some Of These Days
TTITLE8=No Fools No Fun
TTITLE9=New York City
TTITLE10=Sitting On Top Of The World
TTITLE11=Last Fair Deal Gone Down
TTITLE12=Let The Memaids Flirst With Me
TTITLE13=When You Got A Good Friend
EXTD=
EXTT0=
EXTT1=
EXTT2=
EXTT3=
EXTT4=
EXTT5=
EXTT6=
EXTT7=
EXTT8=
EXTT9=
EXTT10=
EXTT11=
EXTT12=
EXTT13=
PLAYORDER=
